<?xml version="1.0"?>
<svg xmlns="http://www.w3.org/2000/svg" viewBox="-6 -6 30 30" width="1024" height="1024"><rect x="-6" y="-6" width="30" height="30" fill="#f3f3f5"/><path d="M14.76 5.58v10.26H3.24V2.16h8.21z" fill="#fff"/><path d="M14.76 5.58v10.26H3.24V2.16h8.21z" fill="#f9fafa"/><path d="M11.23 2.34l.29 3.6 3.24-.36z" fill="#fff"/><path d="M11.61 1.79H2.7V16.2h12.6V5.51zm2.69 3.72h-2.67V2.82zm.28 10H3.42v-13h7.38v3.86h3.78z" fill="#ccc"/><path d="M14.25 11.88a1.83 1.83 0 0 1-1.83 1.83H2.83A1.83 1.83 0 0 1 1 11.89v-2.3a1.83 1.83 0 0 1 1.83-1.83h9.59a1.83 1.83 0 0 1 1.83 1.83z" fill="#c9473d"/><text fill="#fff" text-anchor="middle" x="7.7" y="12.2" style="font: bold 4px -apple-system, BlinkMacSystemFont, avenir next, avenir, segoe ui, helvetica neue, helvetica, Ubuntu, roboto, noto, arial, sans-serif;">PHP</text></svg>
